<svg xmlns="http://www.w3.org/2000/svg" width="200" height="200" viewBox="0 0 500 500">
  <defs>
    <style>
      .cls-1, .cls-2 {
        stroke: #000;
        fill-rule: evenodd;
      }

      .cls-1 {
        stroke-width: 5px;
      }

      .cls-2 {
        fill: #fff;
        stroke-width: 3px;
      }
    </style>
  </defs>
  <path id="Polygon_1" data-name="Polygon 1" class="cls-1" d="M403.532,438.962l-85.57-76.14L346.385,473.78l-61.854-96.4-2.567,114.511L248.413,382.373,215.046,491.945l-2.76-114.507L150.6,473.945l28.236-111L93.39,439.224l57.138-99.271-102.854,50.4,81.8-80.175L16.837,330.967l100.4-55.131L3.167,265.461l111.55-26L7.677,198.7l114.429,5.061L30.034,135.622l108.819,35.746L68.578,80.92l95.14,63.779L120.451,38.645l74.405,87.083L181.806,11.934l48.151,103.927,18.136-113.1L266.419,115.83,314.4,11.822,301.537,125.638,375.8,38.43,332.707,144.556l95.032-63.939-70.122,90.566,108.759-35.929-91.957,68.289,114.419-5.254L381.867,239.236l111.594,25.811L379.41,275.615,479.9,330.577,367.228,309.982l81.937,80.036-102.938-50.23Z"/>
  <path class="cls-2" d="M248.239,43.831c113.058,0,204.71,91.651,204.71,204.709S361.3,453.25,248.239,453.25,43.529,361.6,43.529,248.54,135.181,43.831,248.239,43.831Z"/>
  <path id="Polygon_2" data-name="Polygon 2" class="cls-1" d="M318.1,357.768l-43.531-44.306-0.674,62.109-24.586-57.039L226.24,376.2l-2.321-62.069-42.341,45.445,20.258-58.717-55.9,27.081,40.1-47.434-61.906,5.06,54.528-29.745-59.554-17.645L180.7,230.14l-49.158-37.967,60.335,14.754-32.123-53.161,50.931,35.553-10.749-61.176,34.648,51.551,12.076-60.928,13.686,60.586,33.27-52.451-9.124,61.439,49.971-36.891-30.7,53.994L363.681,189.1l-48.134,39.257,61.782,6.4-59.065,19.218,55.3,28.288-62.019-3.416L352.887,325.2l-56.6-25.589Z"/>
</svg>
