<?xml version="1.0" encoding="utf-8"?>
<!-- Generator: Adobe Illustrator 21.1.0, SVG Export Plug-In . SVG Version: 6.00 Build 0)  -->
<svg version="1.1" id="Layer_1" xmlns="http://www.w3.org/2000/svg" xmlns:xlink="http://www.w3.org/1999/xlink" x="0px" y="0px"
	 viewBox="0 0 849.1 828.1" style="enable-background:new 0 0 849.1 828.1;" xml:space="preserve">
<style type="text/css">
	.st0{fill:#FFC937;stroke:#231F20;stroke-width:6;stroke-miterlimit:10;}
	.st1{fill:#878791;}
	.st2{fill:#A5A5AD;}
	.st3{fill:#C0C0C6;}
	.st4{fill:#D3D3D7;}
	.st5{fill:#464655;}
	.st6{font-family:'ArialMT';}
	.st7{font-size:12px;}
</style>
<circle class="st0" cx="439.5" cy="414" r="397.5"/>
<g>
	
		<ellipse transform="matrix(0.5892 -0.808 0.808 0.5892 -166.4796 367.1209)" class="st1" cx="277.8" cy="347.3" rx="107.4" ry="88.6"/>
	
		<ellipse transform="matrix(0.808 -0.5892 0.5892 0.808 -89.6618 419.4345)" class="st1" cx="598.7" cy="347.3" rx="88.6" ry="107.4"/>
</g>
<path class="st2" d="M619.9,460.7c0,100.3-81.3,181.7-181.7,181.7s-181.7-81.3-181.7-181.7c0-21.2,3.6-41.6,10.3-60.6
	c16.4-46.5,51.2-84.3,95.6-104.6c23-10.6,48.7-16.5,75.7-16.5C538.6,279.1,619.9,360.4,619.9,460.7z"/>
<path class="st3" d="M487.8,584.6c0,18.2-26.7,41.3-49.5,41.3s-49.5-23-49.5-41.3c0-18.2,26.7-24.8,49.5-24.8
	C461,559.8,487.8,566.4,487.8,584.6z"/>
<path class="st4" d="M504.3,564c0,20.5-29.6,37.2-66.1,37.2s-66.1-16.6-66.1-37.2s29.6-61.9,66.1-61.9S504.3,543.4,504.3,564z"/>
<g>
	<path class="st5" d="M438.2,477.3c-18.2,0-33,14.8-33,33v66.1c0,18.2,14.8,24.8,33,24.8s33-6.5,33-24.8v-66.1
		C471.3,492,456.5,477.3,438.2,477.3z"/>
	<circle class="st5" cx="363.9" cy="477.3" r="16.5"/>
	<circle class="st5" cx="512.5" cy="477.3" r="16.5"/>
</g>
<g>
	<path d="M125.9,252.8l5.4-11.5l13.6,28.5l34.7-7.1l-5.6,12l-28.6,5.2l-0.1,0.1l21.5,10.1l-4.4,9.3L114.6,277l4.4-9.3l20.2,9.5
		l0.1-0.1L125.9,252.8z"/>
	<path d="M194.4,242.9c-9,13.3-24.8,14.7-37.7,6c-13-8.8-17.1-24.1-8.3-37.2c8.8-13,24.6-14.9,37.6-6.1
		C198.9,214.4,203.5,229.6,194.4,242.9z M156.8,217.5c-5.5,8.1-1.5,17.6,5.5,22.4c6.7,4.6,17.3,6.8,23.7-2.6s0.4-18.4-6.3-23
		C172.6,209.5,162.3,209.4,156.8,217.5z"/>
	<path d="M209.7,202.9l5.1,10.8l-7.5,7.9l-25.3-52.2l5.5-5.8l53.1,22.6l-7.5,8l-10.9-4.7L209.7,202.9z M195.7,177.4l-0.1,0.1
		l10,17.4l8.6-9.1L195.7,177.4z"/>
	<path d="M244.7,172.1l11.2-9.3l5.7,6.9l-19.1,15.9l-33.8-40.5l7.9-6.6L244.7,172.1z"/>
	<path d="M266,153l2.4,11.7l-9.1,5.9L247,114l6.7-4.4l46.3,34.5l-9.2,6l-9.5-7.1L266,153z M258.4,125l-0.1,0.1l5.6,19.2l10.5-6.8
		L258.4,125z"/>
	<path d="M299.8,86.1l11.9-4.7c9.1-3.6,16.1-2.2,20,7.5c1.4,3.5,1.7,8-0.5,11.2c6.2-1.2,11.1,3.6,13.3,9c3.8,9.6-1.3,16.6-10.2,20.1
		l-15,5.9L299.8,86.1z M317.5,102.8l1.2-0.5c4.7-1.9,6.4-4.1,4.4-9.2c-2-5-5.4-5.2-9.4-3.6l-1.2,0.5L317.5,102.8z M325.8,123.7
		l2-0.8c5.1-2,9.3-4.4,6.8-10.8c-2.5-6.4-7.8-4.6-12.6-2.7l-1.6,0.6L325.8,123.7z"/>
	<path d="M352.8,76.9l3,11.2l15.8-4.2l2.3,8.7l-15.8,4.2l3.7,13.8l16.4-4.4l2.3,8.7l-26.4,7l-13.6-51l26.4-7l2.3,8.7L352.8,76.9z"/>
	<path d="M395,101l-2.8,11.6l-10.8,1.4l13.3-56.4l7.9-1l26.9,51.1l-10.9,1.4l-5.5-10.5L395,101z M400.2,72.5l-0.1,0l-3.2,19.8
		l12.4-1.6L400.2,72.5z"/>
	<path d="M466.9,108.3l-12.5-0.1l-12.7-21.3l-0.1,0l-0.1,21.3l-10.3-0.1l0.3-52.8l13.9,0.1c10.4,0.1,17.6,4.7,17.6,16
		c0,6.7-3.8,13.4-10.9,14.6L466.9,108.3z M441.7,79.7l1.3,0c5.7,0,9.7-1.6,9.7-8.1c0-6.5-4.1-7.8-9.5-7.8l-1.4,0L441.7,79.7z"/>
	<path d="M499.6,57.4l7.3,1.6l19.3,41.9l0.1,0l7.5-34.7l10.1,2.2l-11.4,52.6l-7.3-1.6l-19.3-41.9l-0.1,0l-7.6,35l-10.1-2.2
		L499.6,57.4z"/>
	<path d="M552.3,115.5l-8.1,8.8l-10.1-3.9l38.9-43l7.4,2.9l-1.1,57.7l-10.2-4l0.3-11.8L552.3,115.5z M570.6,93l-0.1-0.1L558,108.7
		l11.7,4.6L570.6,93z"/>
	<path d="M590.9,145l-9.1-4.8l20.2-38.9l-9.4-4.9l4.1-7.9l28,14.6l-4.1,7.9l-9.4-4.9L590.9,145z"/>
	<path d="M611.4,157.1l-8.7-5.5l28-44.8l8.7,5.5L611.4,157.1z"/>
	<path d="M634.6,175.7c-12.6-10-12.7-25.9-3-38.1c9.8-12.2,25.4-15.2,37.7-5.4c12.3,9.8,12.9,25.7,3.1,38
		C662.7,182.3,647.2,185.7,634.6,175.7z M662.9,140.2c-7.6-6.1-17.5-2.9-22.8,3.7c-5.1,6.3-8.1,16.7,0.8,23.8
		c8.9,7.1,18.3,1.8,23.4-4.5C669.6,156.6,670.5,146.2,662.9,140.2z"/>
	<path d="M698.5,157.3l4.9,5.5l-9.1,45.3l0.1,0.1l26.5-23.6l6.8,7.7l-40.2,35.7l-4.9-5.5l9.1-45.3l-0.1-0.1L664.8,201l-6.8-7.7
		L698.5,157.3z"/>
	<path d="M706.7,235.2l-11.7,2.3l-5.8-9.1l56.7-11.9l4.3,6.7l-34.8,46.1l-5.9-9.3l7.2-9.4L706.7,235.2z M734.8,227.8l-0.1-0.1
		l-19.3,5.4l6.8,10.6L734.8,227.8z"/>
	<path d="M728,276.7l6.3,13.1l-8.1,3.9l-10.8-22.4l47.5-22.9l4.5,9.3L728,276.7z"/>
</g>
<text class="st6 st7"> </text>
<g>
	<path d="M132.2,588.6l-4.7-9.2l47-24.1l4.7,9.2L132.2,588.6z"/>
	<path d="M182.6,569.9l4.1,6.2l-15.1,43.6l0.1,0.1l29.4-19.8l5.7,8.5l-44.7,30l-4.1-6.2l15.1-43.6l-0.1-0.1l-29.7,20l-5.7-8.5
		L182.6,569.9z"/>
	<path d="M211.2,626.9l-8.7,7.7l9.8,11.2l-6.7,5.9l-9.8-11.2l-17.5,15.3l-6.8-7.7l39.7-34.8l17.3,19.7l-6.7,5.9L211.2,626.9z"/>
	<path d="M213.9,693.2c-12.2-10.5-11.8-26.4-1.6-38.2c10.2-11.9,25.9-14.3,37.9-4c11.9,10.3,12,26.2,1.7,38
		C241.8,700.9,226.1,703.7,213.9,693.2z M243.5,658.8c-7.4-6.3-17.3-3.6-22.9,2.9c-5.3,6.2-8.7,16.4-0.1,23.8
		c8.7,7.4,18.3,2.5,23.6-3.7C249.7,675.4,250.9,665.1,243.5,658.8z"/>
	<path d="M274.6,734.2l-10.6-6.6l0.4-24.8l-0.1-0.1L253,720.7l-8.7-5.4l27.9-44.8l11.8,7.4c8.9,5.5,12.5,13.2,6.6,22.8
		c-3.6,5.7-10.3,9.4-16.9,6.7L274.6,734.2z M268.1,696.6l1.1,0.7c4.8,3,9.1,3.7,12.5-1.8c3.4-5.5,0.6-8.8-4-11.7l-1.2-0.7
		L268.1,696.6z"/>
	<path d="M332.2,724.2l-0.1-0.1l-24,26.2l-3.3-1.4l2.3-35.3l-0.1-0.1l-17,28.4l-9.5-4l29.2-46.5l6.7,2.8l-1.5,37.1l25-27.2l6.8,2.9
		l-13.7,53l-9.6-4L332.2,724.2z"/>
	<path d="M357,754.4l-6.7,9.9l-10.6-2.5l32.3-48.1l7.8,1.8l7.2,57.3l-10.7-2.5l-1.4-11.8L357,754.4z M371.9,729.6l-0.1,0l-10,17.4
		l12.2,2.8L371.9,729.6z"/>
	<path d="M406.6,774.7l-10.2-1.2l5.2-43.5l-10.6-1.3l1.1-8.9l31.3,3.8l-1.1,8.9l-10.6-1.3L406.6,774.7z"/>
	<path d="M435.4,776.5l-10.3-0.4l2-52.7l10.3,0.4L435.4,776.5z"/>
	<path d="M471.7,776.9c-16,1.2-27-10.3-28.2-25.8c-1.2-15.6,8.2-28.4,23.9-29.7c15.7-1.2,27,10,28.2,25.6
		C496.8,762.6,487.8,775.7,471.7,776.9z M468.2,731.6c-9.7,0.8-14.8,9.8-14.1,18.3c0.6,8.1,5.5,17.8,16.8,16.9
		c11.4-0.9,14.6-11.2,14-19.3C484.3,739,477.9,730.9,468.2,731.6z"/>
	<path d="M496.1,718.8l7.2-1.8l36,28.9l0.1,0l-8.7-34.4l10-2.5l13.2,52.2l-7.2,1.8l-36-28.9l-0.1,0l8.8,34.7l-10,2.5L496.1,718.8z"
		/>
	<path d="M602.8,695.7c-4.1-1.8-9-1.7-12.9,0.2c-8.8,4.5-9.8,15.1-5.7,23.3c4,7.9,13.3,13.2,21.8,8.9c3.9-2,6.8-6,7.9-10.3l5.5,10.9
		c-2.6,3.4-5.4,6.3-9.3,8.2c-13.2,6.7-28.8,0.2-35.4-12.8c-6.8-13.4-3.3-29.9,10.5-36.9c3.7-1.9,7.8-2.7,11.9-2.6L602.8,695.7z"/>
	<path d="M614.8,681.8l6.5,9.6l13.6-9.1l5,7.4l-13.6,9.1l8,11.9l14.1-9.5l5,7.4l-22.7,15.2l-29.4-43.8l22.7-15.2l5,7.4L614.8,681.8z
		"/>
	<path d="M627.6,661l5.5-4.9l45.3,9l0.1-0.1l-23.7-26.4l7.7-6.9l35.9,40.1l-5.5,4.9l-45.3-9l-0.1,0.1l23.9,26.7l-7.7,6.9L627.6,661z
		"/>
	<path d="M717.6,647.8l-6.7,7.8l-33.4-28.4l-6.9,8.1l-6.8-5.8l20.4-24.1l6.8,5.8l-6.9,8.1L717.6,647.8z"/>
	<path d="M699.2,599.5l9.6,6.5l9.2-13.6l7.4,5l-9.2,13.6l11.8,8l9.6-14.1l7.4,5l-15.3,22.6L686,603l15.3-22.6l7.4,5L699.2,599.5z"/>
	<path d="M767.7,568L762,579l-24.8,1.6l-0.1,0.1l18.9,9.8l-4.7,9.1l-46.9-24.2l6.4-12.4c4.8-9.3,12.2-13.5,22.2-8.4
		c6,3.1,10.2,9.5,8,16.3L767.7,568z M730.7,577.5l0.6-1.2c2.6-5,2.9-9.4-2.8-12.3c-5.8-3-8.8,0.1-11.3,5l-0.6,1.2L730.7,577.5z"/>
</g>
<text class="st6 st7"> </text>
</svg>
